<svg xmlns="http://www.w3.org/2000/svg" version="1.1" xmlns:xlink="http://www.w3.org/1999/xlink" xmlns:svgjs="http://svgjs.dev/svgjs" width="2000" height="2000" viewBox="0 0 2000 2000"><g transform="matrix(1,0,0,1,-0.28443113772425477,-0.28443113772459583)"><svg viewBox="0 0 334 334" data-background-color="#010536" preserveAspectRatio="xMidYMid meet" height="2000" width="2000" xmlns="http://www.w3.org/2000/svg" xmlns:xlink="http://www.w3.org/1999/xlink"><g id="tight-bounds" transform="matrix(1,0,0,1,0.04749999999998522,0.04750000000001364)"><svg viewBox="0 0 333.90454557049503 333.90454557049503" height="333.90454557049503" width="333.90454557049503"><g><svg></svg></g><g><svg viewBox="0 0 333.90454557049503 333.90454557049503" height="333.90454557049503" width="333.90454557049503"><g><path d="M0 166.952c0-92.205 74.747-166.952 166.952-166.952 92.205 0 166.952 74.747 166.953 166.952 0 92.205-74.747 166.952-166.953 166.953-92.205 0-166.952-74.747-166.952-166.953zM166.952 316.63c82.665 0 149.677-67.013 149.678-149.678 0-82.665-67.013-149.677-149.678-149.677-82.665 0-149.677 67.013-149.677 149.677 0 82.665 67.013 149.677 149.677 149.678z" data-fill-palette-color="tertiary" fill="#000000" stroke="transparent"></path><ellipse rx="160.27418187383762" ry="160.27418187383762" cx="166.95227278524752" cy="166.95227278524752" fill="#000000" stroke="transparent" stroke-width="0" fill-opacity="1" data-fill-palette-color="tertiary"></ellipse></g><g transform="matrix(1,0,0,1,107.15103351890151,71.17305217166896)"><svg viewBox="0 0 119.602478532692 191.55844122715712" height="191.55844122715712" width="119.602478532692"><g><svg viewBox="0 0 119.602478532692 191.55844122715712" height="191.55844122715712" width="119.602478532692"><g><svg viewBox="0 0 119.602478532692 191.55844122715712" height="191.55844122715712" width="119.602478532692"><g><svg viewBox="0 0 119.602478532692 191.55844122715712" height="191.55844122715712" width="119.602478532692"><g id="textblocktransform"><svg viewBox="0 0 119.602478532692 191.55844122715712" height="191.55844122715712" width="119.602478532692" id="textblock"><g><svg viewBox="0 0 119.602478532692 191.55844122715712" height="191.55844122715712" width="119.602478532692"><g transform="matrix(1,0,0,1,0,0)"><svg width="119.602478532692" viewBox="4.7 -38.6 24.6 39.4" height="191.55844122715712" data-palette-color="#010536"><path d="M4.7-1.7L4.7-37.75Q5.55-38.2 6.58-38.4 7.6-38.6 8.65-38.6L8.65-38.6 8.65-21.5Q9.35-22.4 10.33-23.3 11.3-24.2 12.55-24.93 13.8-25.65 15.33-26.13 16.85-26.6 18.6-26.6L18.6-26.6Q21.1-26.6 23.08-25.7 25.05-24.8 26.45-23.2 27.85-21.6 28.58-19.43 29.3-17.25 29.3-14.75L29.3-14.75Q29.3-11.5 28.2-8.68 27.1-5.85 25.13-3.75 23.15-1.65 20.38-0.43 17.6 0.8 14.25 0.8L14.25 0.8Q10.85 0.8 8.5 0.05 6.15-0.7 4.7-1.7L4.7-1.7ZM16.75-23.8L16.75-23.8Q14.1-23.8 11.95-22.23 9.8-20.65 8.65-18.35L8.65-18.35 8.65-3.65Q9.85-2.7 11.73-2.1 13.6-1.5 15.95-1.5L15.95-1.5Q17.85-1.5 19.53-2.23 21.2-2.95 22.45-4.35 23.7-5.75 24.43-7.85 25.15-9.95 25.15-12.7L25.15-12.7Q25.15-18 22.9-20.9 20.65-23.8 16.75-23.8Z" opacity="1" transform="matrix(1,0,0,1,0,0)" fill="#ffffff" class="wordmark-text-0" data-fill-palette-color="quaternary" id="text-0"></path></svg></g></svg></g></svg></g></svg></g><g></g></svg></g></svg></g></svg></g></svg></g><defs></defs></svg><rect width="333.90454557049503" height="333.90454557049503" fill="none" stroke="none" visibility="hidden"></rect></g></svg></g></svg>